<svg
  width="206"
  height="87"
  viewBox="0 0 206 87"
  fill="none"
  xmlns="http://www.w3.org/2000/svg"
>
  <path
    d="M73.1859 8.3918H68.8819V19.5918H70.9619V15.6398H73.1219C75.6019 15.6398 77.0099 14.2478 77.0099 11.9918C77.0099 9.8958 75.6179 8.3918 73.1859 8.3918ZM72.9619 13.7038H70.9619V10.3278H73.0259C74.1939 10.3278 74.8339 11.0318 74.8339 11.9918C74.8339 13.0318 74.2099 13.7038 72.9619 13.7038ZM87.6851 19.5918L85.2211 15.0958C86.5011 14.5198 87.3171 13.3678 87.3171 11.8958C87.3171 9.7358 85.7811 8.3918 83.5731 8.3918H79.4131V19.5918H81.4931V15.4638H83.1411L85.3811 19.5918H87.6851ZM81.4931 10.3758H83.3651C84.4851 10.3758 85.1411 10.9838 85.1411 11.9278C85.1411 12.8238 84.4851 13.4958 83.3651 13.4958H81.4931V10.3758ZM95.2735 19.7518C98.5055 19.7518 100.922 17.2718 100.922 13.9918C100.922 10.7118 98.5055 8.2318 95.2575 8.2318C91.9935 8.2318 89.5935 10.7118 89.5935 13.9918C89.5935 17.2718 91.9935 19.7518 95.2735 19.7518ZM95.2735 17.6558C93.3055 17.6558 91.8495 16.0878 91.8495 13.9918C91.8495 11.8958 93.3055 10.3278 95.2575 10.3278C97.1935 10.3278 98.6495 11.8958 98.6495 13.9918C98.6495 16.0878 97.2095 17.6558 95.2735 17.6558ZM104.73 16.1998H102.618C102.65 18.2958 103.914 19.7518 106.218 19.7518C108.218 19.7518 109.706 18.4558 109.706 16.1198V8.3918H107.562V15.9918C107.562 17.1758 106.97 17.7358 106.154 17.7358C105.226 17.7358 104.794 17.0638 104.73 16.1998ZM115.087 17.6238V14.8558H119.663V12.9838H115.087V10.3598H120.399V8.3918H112.991V19.5918H120.559V17.6238H115.087ZM132.662 15.9918H130.39C130.054 17.0158 129.11 17.7198 127.846 17.7198C125.926 17.7198 124.726 16.2478 124.726 14.0238C124.726 11.9118 125.846 10.2798 127.702 10.2798C129.03 10.2798 129.878 10.9678 130.166 12.0078H132.454C132.022 9.3678 129.958 8.2318 127.67 8.2318C124.502 8.2318 122.39 10.6478 122.39 13.9918C122.39 17.3518 124.454 19.7518 127.862 19.7518C130.278 19.7518 132.23 18.3918 132.662 15.9918ZM142.704 8.3918H134.368V10.3758H137.456V19.5918H139.6V10.3758H142.704V8.3918Z"
    fill="white"
  />
  <path
    fill-rule="evenodd"
    clip-rule="evenodd"
    d="M105.749 36.7786L6.35193 19.5918L5.50002 24.5187L84.2906 38.1424L3.5 43.2769L3.81712 48.2668L105.478 41.8059L202.576 58.5951L203.428 53.6682L126.937 40.4422L203.414 35.5818L203.097 30.5919L105.749 36.7786Z"
    fill="url(#paint0_linear)"
  />
  <path
    d="M57.8995 63.6126L56.1111 61.2877C55.7237 61.7348 54.7997 62.7184 53.7564 63.3145C52.7132 62.7184 51.4017 62.3607 49.9114 62.3607C46.1856 62.3607 43.8905 64.626 43.8905 67.547C43.8905 69.1864 44.6357 70.4681 45.8577 71.3324C44.6953 71.869 43.652 72.793 43.652 74.2833C43.652 75.4755 44.278 76.3399 45.2914 76.8168L43.2049 78.5754C43.2049 81.3474 45.5895 83.8512 50.2095 83.8512C54.5612 83.8512 57.1544 81.8243 57.1544 78.7841C57.1544 76.1611 55.4256 74.3131 51.6402 74.3131H49.2855C47.8249 74.3131 47.0798 73.9256 47.0798 73.2401C47.0798 72.7333 47.5865 72.4949 48.0932 72.3161C48.7191 72.4651 49.3749 72.5247 50.0604 72.5247C53.667 72.5247 56.3198 70.6767 56.3198 67.6961C56.3198 66.7124 56.0515 65.8182 55.5746 65.0433C56.6477 64.626 57.5418 64.0597 57.8995 63.6126ZM50.12 69.7825C48.5701 69.7825 47.6163 68.7393 47.6163 67.4576C47.6163 66.1163 48.5701 65.0731 50.1498 65.0731C51.67 65.0731 52.6238 66.1163 52.6238 67.4576C52.6238 68.7393 51.67 69.7825 50.12 69.7825ZM53.3689 78.9927C53.3689 80.1552 52.2065 80.8407 50.3883 80.8407C48.272 80.8407 47.2288 79.8869 46.9606 78.6946L48.7489 77.2639H50.9248C52.4151 77.2639 53.3689 77.8302 53.3689 78.9927ZM70.9848 72.8824C70.4483 74.0746 69.1666 74.7304 67.7061 74.7304C65.262 74.7304 64.0399 73.3295 63.7419 71.1834H74.5616C75.0683 64.8346 71.3425 62.3905 67.3782 62.3905C63.2948 62.3905 60.0161 65.5202 60.0161 70.1104C60.0161 74.7304 62.9967 77.8899 67.6465 77.8899C71.0146 77.8899 73.9357 76.1313 74.651 72.8824H70.9848ZM67.5571 65.4308C69.6137 65.4308 70.9252 66.8913 70.9848 68.3816H63.8909C64.3678 66.5038 65.7091 65.4308 67.5571 65.4308ZM86.4621 62.4203C84.2862 62.4203 83.0344 63.3741 82.2296 64.4173H81.8421L81.395 62.6886H78.4442V83.5531H82.2296V76.0717C82.9748 77.1745 84.3757 77.9197 86.2833 77.9197C90.0985 77.9197 93.2878 74.9092 93.2878 70.1104C93.2878 65.401 90.1879 62.4203 86.4621 62.4203ZM85.8064 74.4323C83.6603 74.4323 82.2296 72.6737 82.2296 70.17C82.2296 67.6662 83.6603 65.8779 85.8064 65.8779C87.9524 65.8779 89.4726 67.6364 89.4726 70.17C89.4726 72.6737 87.9524 74.4323 85.8064 74.4323ZM104.961 62.4203C102.786 62.4203 101.534 63.3741 100.729 64.4173H100.341L99.8944 62.6886H96.9435V83.5531H100.729V76.0717C101.474 77.1745 102.875 77.9197 104.783 77.9197C108.598 77.9197 111.787 74.9092 111.787 70.1104C111.787 65.401 108.687 62.4203 104.961 62.4203ZM104.306 74.4323C102.16 74.4323 100.729 72.6737 100.729 70.17C100.729 67.6662 102.16 65.8779 104.306 65.8779C106.452 65.8779 107.972 67.6364 107.972 70.17C107.972 72.6737 106.452 74.4323 104.306 74.4323ZM125.93 72.8824C125.393 74.0746 124.112 74.7304 122.651 74.7304C120.207 74.7304 118.985 73.3295 118.687 71.1834H129.507C130.013 64.8346 126.288 62.3905 122.323 62.3905C118.24 62.3905 114.961 65.5202 114.961 70.1104C114.961 74.7304 117.942 77.8899 122.592 77.8899C125.96 77.8899 128.881 76.1313 129.596 72.8824H125.93ZM122.502 65.4308C124.559 65.4308 125.87 66.8913 125.93 68.3816H118.836C119.313 66.5038 120.654 65.4308 122.502 65.4308ZM142.342 77.0851L141.537 74.0746C141.269 74.2237 140.732 74.4919 140.136 74.4919C139.301 74.4919 138.765 73.9554 138.765 72.7632V65.7884H142.461V62.6886H138.765V58.933H135.248V60.8704C135.248 62.1521 134.443 62.9568 132.893 62.9568H131.969V65.7884H134.89V73.1208C134.89 76.787 136.827 77.8899 139.421 77.8899C140.732 77.8899 141.716 77.4726 142.342 77.0851ZM155.165 77.0851L154.36 74.0746C154.092 74.2237 153.555 74.4919 152.959 74.4919C152.125 74.4919 151.588 73.9554 151.588 72.7632V65.7884H155.284V62.6886H151.588V58.933H148.071V60.8704C148.071 62.1521 147.266 62.9568 145.716 62.9568H144.792V65.7884H147.713V73.1208C147.713 76.787 149.651 77.8899 152.244 77.8899C153.555 77.8899 154.539 77.4726 155.165 77.0851ZM165.609 77.8899C169.99 77.8899 173.418 74.7304 173.418 70.1402C173.418 65.5202 169.96 62.3905 165.579 62.3905C161.227 62.3905 157.71 65.5202 157.71 70.1402C157.71 74.7304 161.227 77.8899 165.609 77.8899ZM165.609 74.4621C163.224 74.4621 161.585 72.5545 161.585 70.1402C161.585 67.7259 163.224 65.8182 165.579 65.8182C167.963 65.8182 169.543 67.7259 169.543 70.1402C169.543 72.5843 167.963 74.4621 165.609 74.4621Z"
    fill="white"
  />
  <circle cx="4" cy="46.0918" r="3.5" fill="white" />
  <circle cx="6" cy="22.0918" r="3.5" fill="white" />
  <circle cx="202" cy="33.0918" r="3.5" fill="white" />
  <circle cx="202" cy="56.0918" r="3.5" fill="white" />
  <defs>
    <linearGradient
      id="paint0_linear"
      x1="106.814"
      y1="19.5918"
      x2="106.559"
      y2="58.6372"
      gradientUnits="userSpaceOnUse"
    >
      <stop stop-color="#FF72CC" />
      <stop offset="1" stop-color="#00E4FF" />
    </linearGradient>
  </defs>
</svg>