<svg width="263" height="262" viewBox="0 0 263 262" fill="none" xmlns="http://www.w3.org/2000/svg">
<path d="M131.5 1.30999C131.5 0.586512 132.087 -0.000677139 132.811 0.0065555C162.653 0.304925 191.515 10.786 214.606 29.7356C238.034 48.9625 254.07 75.718 259.983 105.443C265.896 135.168 261.319 166.024 247.032 192.753C232.745 219.482 209.632 240.43 181.632 252.028C153.631 263.626 122.475 265.157 93.4727 256.359C64.4702 247.561 39.4155 228.98 22.5775 203.78C5.73951 178.58 -1.83986 148.321 1.13079 118.16C4.0586 88.4332 17.0558 60.6134 37.9468 39.3004C38.4533 38.7838 39.2837 38.7838 39.7953 39.2953C40.3069 39.8069 40.3059 40.6364 39.7996 41.1531C19.3371 62.0375 6.60657 89.2932 3.73817 118.417C0.826932 147.975 8.25472 177.628 24.7559 202.324C41.2571 227.02 65.8108 245.23 94.2333 253.852C122.656 262.474 153.188 260.974 180.629 249.608C208.069 238.241 230.72 217.712 244.721 191.518C258.722 165.324 263.208 135.085 257.413 105.954C251.619 76.8236 235.903 50.6033 212.943 31.7609C190.322 13.1958 162.047 2.92495 132.811 2.62667C132.087 2.61929 131.5 2.03347 131.5 1.30999Z" fill="url(#paint0_linear)"/>
<defs>
<linearGradient id="paint0_linear" x1="140.774" y1="9.27435" x2="14.4115" y2="131" gradientUnits="userSpaceOnUse">
<stop stop-color="#FF72CC"/>
<stop offset="1" stop-color="#00E4FF"/>
</linearGradient>
</defs>
</svg>
