<svg
  width="200"
  height="200"
  viewBox="0 0 200 200"
  fill="none"
  xmlns="http://www.w3.org/2000/svg"
>
  <path
    d="M88 67.5H72C69.5147 67.5 67.5 69.5147 67.5 72V128C67.5 130.485 69.5147 132.5 72 132.5H88C90.4853 132.5 92.5 130.485 92.5 128V72C92.5 69.5147 90.4853 67.5 88 67.5Z"
    fill="white"
  />
  <path
    d="M128 67.5H112C109.515 67.5 107.5 69.5147 107.5 72V128C107.5 130.485 109.515 132.5 112 132.5H128C130.485 132.5 132.5 130.485 132.5 128V72C132.5 69.5147 130.485 67.5 128 67.5Z"
    fill="white"
  />
  <circle cx="100" cy="100" r="99" stroke="#BAC4E2" stroke-width="2" />
</svg>